<?xml version="1.0" standalone="no"?>
<!DOCTYPE svg PUBLIC "-//W3C//DTD SVG 20010904//EN"
 "http://www.w3.org/TR/2001/REC-SVG-20010904/DTD/svg10.dtd">
<svg version="1.0" xmlns="http://www.w3.org/2000/svg"
 width="352.000000pt" height="375.000000pt" viewBox="0 0 352.000000 375.000000"
 preserveAspectRatio="xMidYMid meet">

<g transform="translate(0.000000,375.000000) scale(0.100000,-0.100000)"
fill="#000000" stroke="none">
<path d="M1500 3645 c-249 -56 -450 -226 -543 -458 -30 -76 -52 -186 -39 -199
5 -5 62 -7 127 -6 l118 3 22 70 c31 101 71 169 135 228 122 113 284 153 445
112 171 -45 317 -197 356 -369 l12 -54 116 -4 c64 -2 122 -2 129 1 18 5 8 80
-24 181 -70 224 -277 424 -500 485 -85 23 -273 28 -354 10z"/>
<path d="M326 2825 c-8 -8 -20 -15 -27 -15 -10 0 -11 -82 -6 -381 4 -210 10
-386 13 -391 4 -7 90 -8 248 -5 132 3 242 6 244 6 1 1 2 64 2 141 l0 140 523
3 c685 3 710 2 792 -13 256 -47 434 -257 490 -577 17 -98 20 -352 5 -458 -26
-178 -100 -337 -209 -446 -151 -151 -262 -176 -733 -164 l-276 7 -7 34 -6 34
-154 0 -155 0 0 -45 0 -45 -67 0 c-38 0 -73 4 -80 8 -9 6 -10 35 -3 122 5 63
10 149 10 191 l0 76 -37 7 c-21 3 -98 6 -170 6 l-133 0 0 -47 c0 -27 -3 -92
-7 -146 l-6 -97 -82 0 c-45 0 -110 -3 -145 -7 l-63 -6 7 -281 c4 -154 10 -283
13 -286 2 -3 406 -6 896 -8 783 -2 905 -1 996 14 268 41 472 142 647 318 253
255 357 541 356 981 -1 564 -164 917 -529 1151 -114 73 -262 135 -383 160 -95
19 -672 33 -1412 34 -464 0 -539 -2 -552 -15z"/>
<path d="M807 2003 c-4 -3 -7 -84 -7 -180 l0 -173 103 0 c57 0 138 -3 180 -6
l77 -7 0 180 0 180 -122 6 c-154 9 -223 9 -231 0z"/>
<path d="M1492 1648 l3 -133 105 -3 c162 -4 151 -15 148 136 l-3 127 -128 3
-128 3 3 -133z"/>
<path d="M280 1452 l0 -169 113 -6 c61 -4 140 -7 175 -7 l62 0 0 169 0 168
-52 7 c-29 3 -108 6 -175 6 l-123 0 0 -168z"/>
<path d="M1007 1313 c-4 -3 -7 -79 -7 -168 l0 -162 162 -6 c89 -4 166 -3 170
1 4 4 10 80 14 168 l7 161 -93 6 c-120 9 -245 9 -253 0z"/>
</g>
</svg>
